<mxfile host="Electron" agent="Mozilla/5.0 (Windows NT 10.0; Win64; x64) AppleWebKit/537.36 (KHTML, like Gecko) draw.io/24.7.17 Chrome/128.0.6613.36 Electron/32.0.1 Safari/537.36" version="24.7.17" pages="2">
  <diagram id="3HKbrIMbNx6Ndomt4ODR" name="main_folders">
    <mxGraphModel dx="792" dy="827" grid="1" gridSize="10" guides="1" tooltips="1" connect="1" arrows="1" fold="1" page="1" pageScale="1" pageWidth="827" pageHeight="1169" math="0" shadow="0">
      <root>
        <mxCell id="0" />
        <mxCell id="1" parent="0" />
        <mxCell id="t32T8Ktt79tADhrdBDfe-1" value="&lt;b&gt;Deepvats&lt;/b&gt;" style="sketch=0;pointerEvents=1;shadow=0;dashed=0;html=1;strokeColor=none;labelPosition=center;verticalLabelPosition=bottom;verticalAlign=top;outlineConnect=0;align=center;shape=mxgraph.office.concepts.folder;fillColor=#CCCBCB;" parent="1" vertex="1">
          <mxGeometry x="80" y="250" width="520" height="130" as="geometry" />
        </mxCell>
        <mxCell id="t32T8Ktt79tADhrdBDfe-2" value="nbs" style="sketch=0;pointerEvents=1;shadow=0;dashed=0;html=1;strokeColor=none;fillColor=#505050;labelPosition=center;verticalLabelPosition=bottom;verticalAlign=top;outlineConnect=0;align=center;shape=mxgraph.office.concepts.folder;" parent="1" vertex="1">
          <mxGeometry x="280" y="292.5" width="50" height="45" as="geometry" />
        </mxCell>
        <mxCell id="t32T8Ktt79tADhrdBDfe-3" value="docker" style="sketch=0;pointerEvents=1;shadow=0;dashed=0;html=1;strokeColor=none;fillColor=#505050;labelPosition=center;verticalLabelPosition=bottom;verticalAlign=top;outlineConnect=0;align=center;shape=mxgraph.office.concepts.folder;" parent="1" vertex="1">
          <mxGeometry x="520" y="292.5" width="50" height="45" as="geometry" />
        </mxCell>
        <mxCell id="t32T8Ktt79tADhrdBDfe-4" value="docs (html)" style="sketch=0;pointerEvents=1;shadow=0;dashed=0;html=1;strokeColor=none;fillColor=#DA4026;labelPosition=center;verticalLabelPosition=bottom;verticalAlign=top;outlineConnect=0;align=center;shape=mxgraph.office.concepts.folder;fontColor=#990000;" parent="1" vertex="1">
          <mxGeometry x="200" y="292.5" width="50" height="45" as="geometry" />
        </mxCell>
        <mxCell id="t32T8Ktt79tADhrdBDfe-5" style="edgeStyle=orthogonalEdgeStyle;rounded=0;orthogonalLoop=1;jettySize=auto;html=1;strokeColor=#DA4026;" parent="1" source="t32T8Ktt79tADhrdBDfe-2" target="t32T8Ktt79tADhrdBDfe-4" edge="1">
          <mxGeometry relative="1" as="geometry">
            <Array as="points">
              <mxPoint x="270" y="315" />
              <mxPoint x="270" y="315" />
            </Array>
          </mxGeometry>
        </mxCell>
        <mxCell id="t32T8Ktt79tADhrdBDfe-6" value="dvats" style="sketch=0;pointerEvents=1;shadow=0;dashed=0;html=1;strokeColor=none;fillColor=#e51400;labelPosition=center;verticalLabelPosition=bottom;verticalAlign=top;outlineConnect=0;align=center;shape=mxgraph.office.concepts.folder;fontColor=#990000;" parent="1" vertex="1">
          <mxGeometry x="363.5" y="292.5" width="50" height="45" as="geometry" />
        </mxCell>
        <mxCell id="t32T8Ktt79tADhrdBDfe-7" style="edgeStyle=orthogonalEdgeStyle;rounded=0;orthogonalLoop=1;jettySize=auto;html=1;strokeColor=#DA4026;" parent="1" source="t32T8Ktt79tADhrdBDfe-2" target="t32T8Ktt79tADhrdBDfe-6" edge="1">
          <mxGeometry relative="1" as="geometry">
            <Array as="points" />
          </mxGeometry>
        </mxCell>
        <mxCell id="t32T8Ktt79tADhrdBDfe-8" value="" style="edgeStyle=segmentEdgeStyle;endArrow=classic;html=1;curved=0;rounded=0;endSize=8;startSize=8;strokeColor=#DA4026;" parent="1" source="t32T8Ktt79tADhrdBDfe-9" target="t32T8Ktt79tADhrdBDfe-4" edge="1">
          <mxGeometry width="50" height="50" relative="1" as="geometry">
            <mxPoint x="280" y="450" as="sourcePoint" />
            <mxPoint x="330" y="400" as="targetPoint" />
          </mxGeometry>
        </mxCell>
        <mxCell id="t32T8Ktt79tADhrdBDfe-9" value="nbs_pipeline" style="sketch=0;pointerEvents=1;shadow=0;dashed=0;html=1;strokeColor=none;fillColor=#505050;labelPosition=center;verticalLabelPosition=bottom;verticalAlign=top;outlineConnect=0;align=center;shape=mxgraph.office.concepts.folder;" parent="1" vertex="1">
          <mxGeometry x="110" y="292.5" width="50" height="45" as="geometry" />
        </mxCell>
        <mxCell id="t32T8Ktt79tADhrdBDfe-10" value="&lt;font&gt;r_shiny_app&lt;/font&gt;" style="sketch=0;pointerEvents=1;shadow=0;dashed=0;html=1;strokeColor=none;labelPosition=center;verticalLabelPosition=bottom;verticalAlign=top;outlineConnect=0;align=center;shape=mxgraph.office.concepts.folder;fillColor=#7FBA42;fontColor=#006633;" parent="1" vertex="1">
          <mxGeometry x="440" y="292.5" width="50" height="45" as="geometry" />
        </mxCell>
        <mxCell id="t32T8Ktt79tADhrdBDfe-11" value="&lt;font size=&quot;1&quot; style=&quot;&quot;&gt;&lt;b style=&quot;font-size: 12px;&quot;&gt;work_dir&lt;/b&gt;&lt;/font&gt;" style="sketch=0;pointerEvents=1;shadow=0;dashed=0;html=1;strokeColor=#d6b656;labelPosition=center;verticalLabelPosition=bottom;verticalAlign=top;outlineConnect=0;align=center;shape=mxgraph.office.concepts.folder;fillColor=#fff2cc;" parent="1" vertex="1">
          <mxGeometry x="10" y="320" width="63" height="60" as="geometry" />
        </mxCell>
      </root>
    </mxGraphModel>
  </diagram>
  <diagram name="main_folders_uses" id="PkBRwI52Mzq4C9EBuleq">
    <mxGraphModel dx="1759" dy="973" grid="1" gridSize="10" guides="1" tooltips="1" connect="1" arrows="1" fold="1" page="1" pageScale="1" pageWidth="827" pageHeight="1169" math="0" shadow="0">
      <root>
        <mxCell id="3JRiEsoxXd5dGJqfhaeT-0" />
        <mxCell id="3JRiEsoxXd5dGJqfhaeT-1" parent="3JRiEsoxXd5dGJqfhaeT-0" />
        <mxCell id="Gj9LCT_WMwvpNeRdyANP-9" value="&lt;b style=&quot;&quot;&gt;&lt;font style=&quot;font-size: 16px;&quot; color=&quot;#7ea6e0&quot;&gt;Visual Analytics&amp;nbsp;&lt;/font&gt;&lt;br style=&quot;&quot;&gt;&lt;br style=&quot;&quot;&gt;&lt;br style=&quot;&quot;&gt;&lt;br style=&quot;&quot;&gt;&lt;br style=&quot;&quot;&gt;&lt;br style=&quot;&quot;&gt;&lt;br style=&quot;&quot;&gt;&lt;br style=&quot;&quot;&gt;&lt;br style=&quot;&quot;&gt;&lt;br style=&quot;&quot;&gt;&lt;/b&gt;" style="rounded=0;whiteSpace=wrap;html=1;fillColor=#dae8fc;strokeColor=#6c8ebf;fontSize=20;container=1;" vertex="1" parent="3JRiEsoxXd5dGJqfhaeT-1">
          <mxGeometry x="455" y="240" width="80" height="170" as="geometry" />
        </mxCell>
        <mxCell id="Gj9LCT_WMwvpNeRdyANP-10" value="&lt;b style=&quot;font-size: 16px;&quot;&gt;&lt;font color=&quot;#990000&quot; style=&quot;font-size: 16px;&quot;&gt;Deep Learning&lt;br style=&quot;font-size: 16px;&quot;&gt;&lt;br style=&quot;font-size: 16px;&quot;&gt;&lt;br style=&quot;font-size: 16px;&quot;&gt;&lt;br style=&quot;font-size: 16px;&quot;&gt;&lt;br style=&quot;font-size: 16px;&quot;&gt;&lt;/font&gt;&lt;br style=&quot;font-size: 16px;&quot;&gt;&lt;/b&gt;&lt;div&gt;&lt;b style=&quot;font-size: 16px;&quot;&gt;&lt;br&gt;&lt;/b&gt;&lt;/div&gt;&lt;div&gt;&lt;b style=&quot;font-size: 16px;&quot;&gt;&lt;br&gt;&lt;/b&gt;&lt;/div&gt;&lt;div&gt;&lt;b style=&quot;font-size: 16px;&quot;&gt;&lt;br&gt;&lt;/b&gt;&lt;/div&gt;&lt;div&gt;&lt;b style=&quot;font-size: 16px;&quot;&gt;&lt;br&gt;&lt;/b&gt;&lt;/div&gt;&lt;div&gt;&lt;b style=&quot;font-size: 16px;&quot;&gt;&lt;br&gt;&lt;/b&gt;&lt;/div&gt;" style="rounded=0;whiteSpace=wrap;html=1;fillColor=#F8DADA;strokeColor=#b85450;fontSize=16;" vertex="1" parent="3JRiEsoxXd5dGJqfhaeT-1">
          <mxGeometry x="100" y="240" width="350" height="170" as="geometry" />
        </mxCell>
        <mxCell id="3JRiEsoxXd5dGJqfhaeT-2" value="&lt;b&gt;deepvats&lt;/b&gt;" style="sketch=0;pointerEvents=1;shadow=0;dashed=0;html=1;strokeColor=none;labelPosition=center;verticalLabelPosition=bottom;verticalAlign=top;outlineConnect=0;align=center;shape=mxgraph.office.concepts.folder;fillColor=#CCCBCB;opacity=60;" vertex="1" parent="3JRiEsoxXd5dGJqfhaeT-1">
          <mxGeometry x="110" y="250" width="520" height="130" as="geometry" />
        </mxCell>
        <mxCell id="Gj9LCT_WMwvpNeRdyANP-7" value="&lt;b style=&quot;font-size: 16px;&quot;&gt;&lt;font color=&quot;#c2a54e&quot; style=&quot;font-size: 16px;&quot;&gt;Storage&amp;nbsp;&lt;/font&gt;&lt;br style=&quot;font-size: 16px;&quot;&gt;&lt;br style=&quot;font-size: 16px;&quot;&gt;&lt;br style=&quot;font-size: 16px;&quot;&gt;&lt;br style=&quot;font-size: 16px;&quot;&gt;&lt;br style=&quot;font-size: 16px;&quot;&gt;&lt;br style=&quot;font-size: 16px;&quot;&gt;&lt;br style=&quot;font-size: 16px;&quot;&gt;&lt;br style=&quot;font-size: 16px;&quot;&gt;&lt;br style=&quot;font-size: 16px;&quot;&gt;&lt;br style=&quot;font-size: 16px;&quot;&gt;&lt;br style=&quot;font-size: 16px;&quot;&gt;&lt;/b&gt;" style="rounded=0;whiteSpace=wrap;html=1;fillColor=#FFFCEB;strokeColor=#d6b656;fontSize=16;" vertex="1" parent="3JRiEsoxXd5dGJqfhaeT-1">
          <mxGeometry x="-10" y="240" width="100" height="170" as="geometry" />
        </mxCell>
        <mxCell id="3JRiEsoxXd5dGJqfhaeT-3" value="nbs" style="sketch=0;pointerEvents=1;shadow=0;dashed=0;html=1;strokeColor=none;fillColor=#505050;labelPosition=center;verticalLabelPosition=bottom;verticalAlign=top;outlineConnect=0;align=center;shape=mxgraph.office.concepts.folder;" vertex="1" parent="3JRiEsoxXd5dGJqfhaeT-1">
          <mxGeometry x="310" y="292.5" width="50" height="45" as="geometry" />
        </mxCell>
        <mxCell id="Gj9LCT_WMwvpNeRdyANP-11" style="edgeStyle=orthogonalEdgeStyle;rounded=0;orthogonalLoop=1;jettySize=auto;html=1;entryX=0.75;entryY=1;entryDx=0;entryDy=0;strokeWidth=2;fillColor=#f5f5f5;strokeColor=#666666;" edge="1" parent="3JRiEsoxXd5dGJqfhaeT-1" source="3JRiEsoxXd5dGJqfhaeT-4" target="Gj9LCT_WMwvpNeRdyANP-9">
          <mxGeometry relative="1" as="geometry">
            <Array as="points">
              <mxPoint x="610" y="330" />
              <mxPoint x="610" y="430" />
              <mxPoint x="515" y="430" />
            </Array>
          </mxGeometry>
        </mxCell>
        <mxCell id="Gj9LCT_WMwvpNeRdyANP-13" style="edgeStyle=orthogonalEdgeStyle;rounded=0;orthogonalLoop=1;jettySize=auto;html=1;entryX=0.75;entryY=1;entryDx=0;entryDy=0;strokeWidth=2;fillColor=#f5f5f5;strokeColor=#666666;" edge="1" parent="3JRiEsoxXd5dGJqfhaeT-1" source="3JRiEsoxXd5dGJqfhaeT-4" target="Gj9LCT_WMwvpNeRdyANP-10">
          <mxGeometry relative="1" as="geometry">
            <Array as="points">
              <mxPoint x="610" y="330" />
              <mxPoint x="610" y="430" />
              <mxPoint x="363" y="430" />
            </Array>
          </mxGeometry>
        </mxCell>
        <mxCell id="3JRiEsoxXd5dGJqfhaeT-4" value="docker" style="sketch=0;pointerEvents=1;shadow=0;dashed=0;html=1;strokeColor=none;fillColor=#505050;labelPosition=center;verticalLabelPosition=bottom;verticalAlign=top;outlineConnect=0;align=center;shape=mxgraph.office.concepts.folder;" vertex="1" parent="3JRiEsoxXd5dGJqfhaeT-1">
          <mxGeometry x="550" y="292.5" width="50" height="45" as="geometry" />
        </mxCell>
        <mxCell id="3JRiEsoxXd5dGJqfhaeT-5" value="docs (html)" style="sketch=0;pointerEvents=1;shadow=0;dashed=0;html=1;strokeColor=none;fillColor=#DA4026;labelPosition=center;verticalLabelPosition=bottom;verticalAlign=top;outlineConnect=0;align=center;shape=mxgraph.office.concepts.folder;fontColor=#990000;" vertex="1" parent="3JRiEsoxXd5dGJqfhaeT-1">
          <mxGeometry x="230" y="292.5" width="50" height="45" as="geometry" />
        </mxCell>
        <mxCell id="3JRiEsoxXd5dGJqfhaeT-6" style="edgeStyle=orthogonalEdgeStyle;rounded=0;orthogonalLoop=1;jettySize=auto;html=1;strokeColor=#DA4026;" edge="1" parent="3JRiEsoxXd5dGJqfhaeT-1" source="3JRiEsoxXd5dGJqfhaeT-3" target="3JRiEsoxXd5dGJqfhaeT-5">
          <mxGeometry relative="1" as="geometry">
            <Array as="points">
              <mxPoint x="290" y="320" />
              <mxPoint x="290" y="320" />
            </Array>
          </mxGeometry>
        </mxCell>
        <mxCell id="Gj9LCT_WMwvpNeRdyANP-0" style="edgeStyle=orthogonalEdgeStyle;rounded=0;orthogonalLoop=1;jettySize=auto;html=1;fillColor=#f5f5f5;strokeColor=#666666;strokeWidth=2;" edge="1" parent="3JRiEsoxXd5dGJqfhaeT-1" source="3JRiEsoxXd5dGJqfhaeT-7" target="3JRiEsoxXd5dGJqfhaeT-10">
          <mxGeometry relative="1" as="geometry">
            <mxPoint x="260" y="230" as="targetPoint" />
            <Array as="points">
              <mxPoint x="419" y="260" />
              <mxPoint x="165" y="260" />
            </Array>
          </mxGeometry>
        </mxCell>
        <mxCell id="Gj9LCT_WMwvpNeRdyANP-2" style="edgeStyle=orthogonalEdgeStyle;rounded=0;orthogonalLoop=1;jettySize=auto;html=1;fillColor=#f5f5f5;strokeColor=#666666;strokeWidth=2;" edge="1" parent="3JRiEsoxXd5dGJqfhaeT-1">
          <mxGeometry relative="1" as="geometry">
            <mxPoint x="443.5" y="320" as="sourcePoint" />
            <mxPoint x="470" y="320" as="targetPoint" />
          </mxGeometry>
        </mxCell>
        <mxCell id="3JRiEsoxXd5dGJqfhaeT-7" value="dvats" style="sketch=0;pointerEvents=1;shadow=0;dashed=0;html=1;strokeColor=none;fillColor=#e51400;labelPosition=center;verticalLabelPosition=bottom;verticalAlign=top;outlineConnect=0;align=center;shape=mxgraph.office.concepts.folder;fontColor=#990000;" vertex="1" parent="3JRiEsoxXd5dGJqfhaeT-1">
          <mxGeometry x="393.5" y="292.5" width="50" height="45" as="geometry" />
        </mxCell>
        <mxCell id="3JRiEsoxXd5dGJqfhaeT-8" style="edgeStyle=orthogonalEdgeStyle;rounded=0;orthogonalLoop=1;jettySize=auto;html=1;strokeColor=#DA4026;" edge="1" parent="3JRiEsoxXd5dGJqfhaeT-1" source="3JRiEsoxXd5dGJqfhaeT-3" target="3JRiEsoxXd5dGJqfhaeT-7">
          <mxGeometry relative="1" as="geometry">
            <Array as="points">
              <mxPoint x="380" y="320" />
              <mxPoint x="380" y="320" />
            </Array>
          </mxGeometry>
        </mxCell>
        <mxCell id="3JRiEsoxXd5dGJqfhaeT-9" value="" style="edgeStyle=segmentEdgeStyle;endArrow=classic;html=1;curved=0;rounded=0;endSize=8;startSize=8;strokeColor=#DA4026;" edge="1" parent="3JRiEsoxXd5dGJqfhaeT-1" source="3JRiEsoxXd5dGJqfhaeT-10" target="3JRiEsoxXd5dGJqfhaeT-5">
          <mxGeometry width="50" height="50" relative="1" as="geometry">
            <mxPoint x="310" y="450" as="sourcePoint" />
            <mxPoint x="360" y="400" as="targetPoint" />
            <Array as="points">
              <mxPoint x="210" y="320" />
              <mxPoint x="210" y="320" />
            </Array>
          </mxGeometry>
        </mxCell>
        <mxCell id="3JRiEsoxXd5dGJqfhaeT-10" value="nbs_pipeline" style="sketch=0;pointerEvents=1;shadow=0;dashed=0;html=1;strokeColor=none;fillColor=#505050;labelPosition=center;verticalLabelPosition=bottom;verticalAlign=top;outlineConnect=0;align=center;shape=mxgraph.office.concepts.folder;" vertex="1" parent="3JRiEsoxXd5dGJqfhaeT-1">
          <mxGeometry x="140" y="292.5" width="50" height="45" as="geometry" />
        </mxCell>
        <mxCell id="3JRiEsoxXd5dGJqfhaeT-11" value="&lt;font&gt;r_shiny_app&lt;/font&gt;" style="sketch=0;pointerEvents=1;shadow=0;dashed=0;html=1;strokeColor=none;labelPosition=center;verticalLabelPosition=bottom;verticalAlign=top;outlineConnect=0;align=center;shape=mxgraph.office.concepts.folder;fillColor=#7FBA42;fontColor=#006633;" vertex="1" parent="3JRiEsoxXd5dGJqfhaeT-1">
          <mxGeometry x="470" y="292.5" width="50" height="45" as="geometry" />
        </mxCell>
        <mxCell id="Gj9LCT_WMwvpNeRdyANP-12" style="edgeStyle=orthogonalEdgeStyle;rounded=0;orthogonalLoop=1;jettySize=auto;html=1;strokeWidth=2;fillColor=#f5f5f5;strokeColor=#666666;" edge="1" parent="3JRiEsoxXd5dGJqfhaeT-1" source="3JRiEsoxXd5dGJqfhaeT-12" target="3JRiEsoxXd5dGJqfhaeT-4">
          <mxGeometry relative="1" as="geometry">
            <Array as="points">
              <mxPoint x="80" y="350" />
              <mxPoint x="80" y="440" />
              <mxPoint x="620" y="440" />
              <mxPoint x="620" y="315" />
            </Array>
          </mxGeometry>
        </mxCell>
        <mxCell id="3JRiEsoxXd5dGJqfhaeT-12" value="&lt;font size=&quot;1&quot; style=&quot;&quot;&gt;&lt;b style=&quot;font-size: 12px;&quot;&gt;work_dir&lt;/b&gt;&lt;/font&gt;" style="sketch=0;pointerEvents=1;shadow=0;dashed=0;html=1;strokeColor=#d6b656;labelPosition=center;verticalLabelPosition=bottom;verticalAlign=top;outlineConnect=0;align=center;shape=mxgraph.office.concepts.folder;fillColor=#fff2cc;" vertex="1" parent="3JRiEsoxXd5dGJqfhaeT-1">
          <mxGeometry x="10" y="320" width="63" height="60" as="geometry" />
        </mxCell>
      </root>
    </mxGraphModel>
  </diagram>
</mxfile>
